<svg xmlns="http://www.w3.org/2000/svg" version="1.1" xmlns:xlink="http://www.w3.org/1999/xlink" xmlns:svgjs="http://svgjs.dev/svgjs" width="1000" height="146" viewBox="0 0 1000 146">
  <g transform="matrix(1,0,0,1,-0.6060606060606233,0.2366978788009959)">
    <svg viewBox="0 0 396 58" data-background-color="#ffffff" preserveAspectRatio="xMidYMid meet" height="146" width="1000" xmlns="http://www.w3.org/2000/svg" xmlns:xlink="http://www.w3.org/1999/xlink">
      <defs></defs>
      <g id="tight-bounds" transform="matrix(1,0,0,1,0.2400000000000091,-0.09403066418121853)">
        <svg viewBox="0 0 395.52 58.18806132836246" height="58.18806132836246" width="395.52">
          <g>
            <svg viewBox="0 0 507.7814375009612 74.70372529002321" height="58.18806132836246" width="395.52">
              <g>
                <rect width="6.0826624839513705" height="74.70372529002321" x="90.25557479724182" y="0" fill="#77614c" opacity="1" stroke-width="0" stroke="transparent" fill-opacity="1" class="rect-ei-0" data-fill-palette-color="primary" rx="1%" id="ei-0" data-palette-color="#6b409e"></rect>
              </g>
              <g transform="matrix(1,0,0,1,112.26143750096116,0.18583016241299077)">
                <svg viewBox="0 0 395.52000000000004 74.33206496519723" height="74.33206496519723" width="395.52000000000004">
                  <g>
                    <svg viewBox="0 0 395.52000000000004 74.33206496519723" height="74.33206496519723" width="395.52000000000004">
                      <g>
                        <svg viewBox="0 0 395.52000000000004 74.33206496519723" height="74.33206496519723" width="395.52000000000004">
                          <g transform="matrix(1,0,0,1,0,0)">
                            <svg width="395.52000000000004" viewBox="3.5 -29.400000000000002 172.4 29.400000000000006" height="74.33206496519723" data-palette-color="#6b409e">
                              <svg></svg>
                              <g class="undefined-text-0" data-fill-palette-color="primary" id="text-0">
                                <path d="M27.25 0h-14.6c-2.333 0-4.167-0.333-5.5-1-1.333-0.667-2.273-1.667-2.82-3-0.553-1.333-0.83-2.983-0.83-4.95v0-11.55c0-1.933 0.267-3.56 0.8-4.88 0.533-1.313 1.467-2.313 2.8-3 1.333-0.68 3.183-1.02 5.55-1.02v0h14.6c2.333 0 4.16 0.34 5.48 1.02 1.313 0.687 2.243 1.687 2.79 3 0.553 1.32 0.83 2.947 0.83 4.88v0 11.55c0 2.933-0.65 5.16-1.95 6.68-1.3 1.513-3.683 2.27-7.15 2.27zM14.1-4.8v0h11.75c1.233 0 2.193-0.317 2.88-0.95 0.68-0.633 1.02-1.5 1.02-2.6v0-12.75c0-0.967-0.35-1.793-1.05-2.48-0.7-0.68-1.65-1.02-2.85-1.02v0h-11.75c-1.2 0-2.167 0.317-2.9 0.95-0.733 0.633-1.1 1.483-1.1 2.55v0 12.75c0 1.133 0.36 2.007 1.08 2.62 0.713 0.62 1.687 0.93 2.92 0.93zM50.95 0h-6.6v-25.4l-0.5-4h7.6l11.3 20 11.7-20h6.75v29.4h-6.6v-18.65h-0.55l-1.95 4.35-6.3 11.3h-6.05l-6.3-11.3-2-4.35h-0.5zM96.3 0h-6.6v-25.4l-0.5-4h7.2l17 17.8 1.95 2.7h0.55v-20.5h6.6v29.4h-6.35l-17.4-18.1-1.95-2.35h-0.5zM137.1 0h-6.6v-29.4h6.6zM167.3 0h-16.6c-2.267 0-3.933-0.1-5-0.3-1.067-0.2-1.6-0.433-1.6-0.7v0l2-4.35c0.767 0.133 2.673 0.257 5.72 0.37 3.053 0.12 7.247 0.18 12.58 0.18v0h0.95c1.433 0 2.45-0.26 3.05-0.78 0.6-0.513 0.9-1.387 0.9-2.62v0-1c0-1.167-0.243-2-0.73-2.5-0.48-0.5-1.553-0.75-3.22-0.75v0h-11.6c-3.367 0-5.817-0.627-7.35-1.88-1.533-1.247-2.3-3.287-2.3-6.12v0-0.8c0-1.467 0.273-2.817 0.82-4.05 0.553-1.233 1.497-2.227 2.83-2.98 1.333-0.747 3.167-1.12 5.5-1.12v0h13.6c2.267 0 4.1 0.117 5.5 0.35 1.4 0.233 2.1 0.483 2.1 0.75v0l-1 4.2c-0.867-0.1-2.833-0.21-5.9-0.33-3.067-0.113-7.183-0.17-12.35-0.17v0l-0.55-0.05c-1.533 0-2.567 0.307-3.1 0.92-0.533 0.62-0.817 1.397-0.85 2.33v0 0.85c0 1.1 0.31 1.927 0.93 2.48 0.613 0.547 1.637 0.82 3.07 0.82v0h11.1c2.133 0 3.95 0.217 5.45 0.65 1.5 0.433 2.65 1.223 3.45 2.37 0.8 1.153 1.2 2.847 1.2 5.08v0 0.8c0 2.5-0.643 4.517-1.93 6.05-1.28 1.533-3.503 2.3-6.67 2.3z" data-fill-palette-color="primary" fill="#77614c" opacity="1"></path>
                              </g>
                            </svg>
                          </g>
                        </svg>
                      </g>
                    </svg>
                  </g>
                </svg>
              </g>
              <g transform="matrix(1,0,0,1,0,0.18583016241299077)">
                <svg viewBox="0 0 74.33237457747383 74.33206496519723" height="74.33206496519723" width="74.33237457747383">
                  <g>
                    <svg xmlns="http://www.w3.org/2000/svg" xmlns:xlink="http://www.w3.org/1999/xlink" version="1.0" x="0" y="0" viewBox="4.667731954479793 4.685959745737749 90.30503348258043 90.30465734032528" enable-background="new 0 0 100 100" xml:space="preserve" height="74.33206496519723" width="74.33237457747383" class="icon-icon-0" data-fill-palette-color="accent" id="icon-0">
                      <path d="M17.504 35.743c-1.334 8.611 0.522 17.134 5.093 23.382 3.514 4.801 8.413 7.905 13.796 8.739 5.677 0.88 11.253-0.429 15.703-3.685 1.248-0.912 2.36-1.946 3.326-3.076-2.222 0.978-4.814 1.267-7.626 0.831-11.717-1.816-19.673-13.464-17.735-25.964 0.934-6.03 4.384-11.497 9.713-15.397 6.768-4.952 15.953-6.97 25.201-5.537 7.474 1.158 17.67 5.964 25.56 15.213 0 0-22.835-39.421-56.115-20.356C23.689 16.04 18.653 28.323 17.504 35.743z" fill="#d5ae89" data-fill-palette-color="accent"></path>
                      <path d="M82.544 65.256c1.659-8.555 0.125-17.141-4.207-23.557-3.331-4.931-8.109-8.217-13.457-9.253-5.639-1.094-11.261 0.004-15.83 3.091-1.282 0.863-2.431 1.854-3.44 2.947 2.257-0.894 4.859-1.084 7.652-0.543 11.64 2.257 19.151 14.196 16.744 26.616-1.161 5.989-4.815 11.324-10.288 15.019-6.949 4.692-16.205 6.364-25.393 4.582C26.902 82.719 16.894 77.532 9.358 67.992c0 0 21.331 40.255 55.307 22.457C75.621 84.712 81.115 72.628 82.544 65.256z" fill="#d5ae89" data-fill-palette-color="accent"></path>
                      <path d="M35.726 82.88c8.611 1.334 17.133-0.522 23.381-5.094 4.801-3.514 7.905-8.413 8.74-13.796 0.879-5.676-0.429-11.253-3.686-15.702-0.912-1.248-1.946-2.36-3.076-3.327 0.979 2.222 1.267 4.815 0.831 7.626-1.816 11.717-13.463 19.673-25.965 17.736-6.029-0.934-11.497-4.385-15.395-9.713-4.952-6.768-6.971-15.954-5.538-25.202 1.158-7.474 5.964-17.67 15.213-25.559 0 0-39.421 22.835-20.356 56.115C16.022 76.695 28.305 81.73 35.726 82.88z" fill="#d5ae89" data-fill-palette-color="accent"></path>
                      <path d="M90.432 35.718c-5.738-10.955-17.822-16.45-25.194-17.879-8.554-1.659-17.141-0.125-23.557 4.208-4.931 3.331-8.217 8.108-9.254 13.456-1.094 5.64 0.004 11.261 3.092 15.83 0.863 1.282 1.854 2.431 2.946 3.441-0.894-2.257-1.084-4.859-0.542-7.652 2.257-11.64 14.196-19.151 26.615-16.744 5.99 1.161 11.324 4.816 15.019 10.289 4.693 6.949 6.363 16.204 4.583 25.392-1.44 7.423-6.626 17.431-16.167 24.966C67.973 91.025 108.228 69.694 90.432 35.718z" fill="#d5ae89" data-fill-palette-color="accent"></path>
                    </svg>
                    <g></g>
                  </g>
                </svg>
              </g>
            </svg>
          </g>
        </svg>
        <rect width="395.52" height="58.18806132836246" fill="none" stroke="none" visibility="hidden"></rect>
      </g>
    </svg>
  </g>
</svg>